<?xml version="1.0" encoding="utf-8"?>
<!-- Generator: Adobe Illustrator 22.0.1, SVG Export Plug-In . SVG Version: 6.00 Build 0)  -->
<svg version="1.1" id="Layer_1" xmlns="http://www.w3.org/2000/svg" xmlns:xlink="http://www.w3.org/1999/xlink" x="0px" y="0px"
	 viewBox="0 0 505 505" style="enable-background:new 0 0 505 505;" xml:space="preserve">
<g>
	<path d="M431.044,73.955C383.354,26.265,319.945,0,252.5,0S121.646,26.265,73.956,73.955C26.265,121.646,0,185.055,0,252.5
		s26.265,130.854,73.956,178.545C121.646,478.735,185.055,505,252.5,505s130.854-26.265,178.544-73.955
		C478.735,383.354,505,319.945,505,252.5S478.735,121.646,431.044,73.955z M368.908,429.031l-117.9-117.9L138.579,423.56
		l-58.134-58.133l112.43-112.429L75.968,136.091l60.123-60.123l116.907,116.907L365.427,80.446l58.134,58.133l-112.43,112.429
		l117.901,117.9L368.908,429.031z"/>
</g>
</svg>
