<svg id="Layer_1" data-name="Layer 1" xmlns="http://www.w3.org/2000/svg" viewBox="0 0 112.2 112.2"><title>google</title><path d="M56.1,0a56.1,56.1,0,1,0,56.1,56.1A56.1,56.1,0,0,0,56.1,0Zm4,71.83c-5.73,7.38-16.32,9.54-24.94,6.65A23.26,23.26,0,0,1,19.77,60.2a21.45,21.45,0,0,1-.24-3.59,20,20,0,0,1,.3-4.28C21.63,42.17,31,33.64,41.46,33.52a23.09,23.09,0,0,1,16.61,5.7h0c-1.89,2.07-3.81,4.13-5.87,6.05-4.05-2.47-8.93-4.34-13.67-2.68-7.64,2.18-12.27,11.2-9.44,18.68a13,13,0,0,0,2.95,5.13,14.68,14.68,0,0,0,16.33,3.68c3.85-1.38,6.39-4.93,7.51-8.75-4.42-.09-8.84,0-13.25-.16h0q0-3.95,0-7.87c7.37,0,14.75,0,22.12,0h0C65.2,59.77,64.25,66.66,60.06,71.83ZM92.32,53.32V59.9h0l-6.6,0c0,2.21,0,4.41,0,6.62H79.09c0-2.21,0-4.41,0-6.61l-6.61,0h0V53.32h0l6.61,0c0-2.19,0-4.4,0-6.6h6.57c0,2.2,0,4.41,0,6.6l6.6,0Z" /></svg>