<?xml version="1.0" encoding="utf-8"?>
<!-- Generator: Adobe Illustrator 22.0.1, SVG Export Plug-In . SVG Version: 6.00 Build 0)  -->
<svg version="1.1" id="Layer_1" xmlns="http://www.w3.org/2000/svg" xmlns:xlink="http://www.w3.org/1999/xlink" x="0px" y="0px"
	 viewBox="0 0 505 505" style="enable-background:new 0 0 505 505;" xml:space="preserve">
<g>
	<path d="M431.044,73.955C383.354,26.265,319.945,0,252.5,0S121.646,26.265,73.956,73.955C26.265,121.646,0,185.055,0,252.5
		s26.265,130.854,73.956,178.545C121.646,478.735,185.055,505,252.5,505s130.854-26.265,178.544-73.955
		C478.735,383.354,505,319.945,505,252.5S478.735,121.646,431.044,73.955z M345.5,326.5c-31.657,0-58.723-19.987-69.272-48H309.5
		c0.168,0,0.333-0.01,0.5-0.013c0.209-0.004,0.418-0.007,0.625-0.016c0.203-0.009,0.404-0.022,0.605-0.035
		c7.859,10.359,20.294,17.064,34.269,17.064c23.71,0,43-19.29,43-43s-19.29-43-43-43c-13.975,0-26.411,6.705-34.269,17.064
		c-0.201-0.013-0.402-0.027-0.605-0.035c-0.208-0.009-0.416-0.012-0.625-0.016c-0.167-0.003-0.333-0.013-0.5-0.013h-33.272
		c10.549-28.013,37.615-48,69.272-48c40.804,0,74,33.196,74,74S386.304,326.5,345.5,326.5z M272.749,268.5h-0.521h-39.456h-0.521
		h-0.513h-31.252h-0.549h-0.537H187.5c-8.837,0-16-7.163-16-16s7.163-16,16-16h11.901h0.537h0.549h31.252h0.513h0.521h39.456h0.521
		h0.513h31.252h0.549h0.537h3.901c8.837,0,16,7.163,16,16s-7.163,16-16,16h-3.901h-0.537h-0.549h-31.252H272.749z M159.5,326.5
		c-40.804,0-74-33.196-74-74s33.196-74,74-74c31.657,0,58.723,19.987,69.272,48h-33.782h-0.636h-0.635
		c-7.862-10.322-20.273-17-34.219-17c-23.71,0-43,19.29-43,43s19.29,43,43,43c13.946,0,26.358-6.678,34.219-17h0.635h0.636h33.782
		C218.223,306.513,191.157,326.5,159.5,326.5z"/>
</g>
</svg>
