<?xml version="1.0" encoding="utf-8"?>
<!-- Generator: Adobe Illustrator 22.0.1, SVG Export Plug-In . SVG Version: 6.00 Build 0)  -->
<svg version="1.1" id="Layer_1" xmlns="http://www.w3.org/2000/svg" xmlns:xlink="http://www.w3.org/1999/xlink" x="0px" y="0px"
	 viewBox="0 0 650.2 650.2" style="enable-background:new 0 0 650.2 650.2;" xml:space="preserve">
<g>
	<path d="M325.1,0.5C145.8,0.5,0.5,145.8,0.5,325.1s145.3,324.6,324.6,324.6s324.6-145.3,324.6-324.6S504.4,0.5,325.1,0.5z
		 M214.8,469c-54.1,0-98.1-43.9-98.1-98.1c0-0.1,0-0.2,0-0.3c0,0-12-158.3,181.7-189.2c0,0-79.7,32.4-110.2,95.1
		c8.5-2.4,17.4-3.7,26.6-3.7c54.2,0,98.1,43.9,98.1,98.1C312.9,425,268.9,469,214.8,469z M435.6,469c-54.2,0-98.1-43.9-98.1-98.1
		c0-0.1,0-0.2,0-0.3c0,0-12-158.3,181.7-189.2c0,0-79.7,32.4-110.2,95.1c8.5-2.4,17.4-3.7,26.6-3.7c54.2,0,98.1,43.9,98.1,98.1
		C533.7,425,489.8,469,435.6,469z"/>
</g>
</svg>
